<?xml version="1.0" encoding="UTF-8"?>
<!DOCTYPE svg PUBLIC "-//W3C//DTD SVG 1.1//EN" "http://www.w3.org/Graphics/SVG/1.1/DTD/svg11.dtd">
<svg xmlns="http://www.w3.org/2000/svg" version="1.1" width="40px" height="40px" style="shape-rendering:geometricPrecision; text-rendering:geometricPrecision; image-rendering:optimizeQuality; fill-rule:evenodd; clip-rule:evenodd" xmlns:xlink="http://www.w3.org/1999/xlink">
<g><path style="opacity:1" fill="#f1f7f7" d="M -0.5,-0.5 C 12.8333,-0.5 26.1667,-0.5 39.5,-0.5C 39.5,12.8333 39.5,26.1667 39.5,39.5C 26.1667,39.5 12.8333,39.5 -0.5,39.5C -0.5,26.1667 -0.5,12.8333 -0.5,-0.5 Z"/></g>
<g><path style="opacity:1" fill="#686a6b" d="M 25.5,1.5 C 27.1992,1.33982 28.8659,1.50649 30.5,2C 29.7476,2.67076 29.4142,3.5041 29.5,4.5C 28.8485,3.90935 28.1818,3.24269 27.5,2.5C 26.056,3.98103 25.3894,3.64769 25.5,1.5 Z"/></g>
<g><path style="opacity:1" fill="#727575" d="M 20.5,2.5 C 19.0317,3.86907 17.365,5.03573 15.5,6C 17.437,6.12162 18.7703,6.95496 19.5,8.5C 17.283,9.36863 14.9496,9.70197 12.5,9.5C 12.2965,7.60963 12.9632,6.10963 14.5,5C 13.5509,4.38277 12.7175,4.54943 12,5.5C 11.4666,3.06143 10.3,2.39477 8.5,3.5C 9.82783,1.25542 11.6612,0.922082 14,2.5C 15.3159,-0.0279663 16.4826,-0.0279663 17.5,2.5C 18.4776,2.02335 19.3109,1.35668 20,0.5C 20.4643,1.09442 20.631,1.76109 20.5,2.5 Z"/></g>
<g><path style="opacity:1" fill="#6c6d6d" d="M 22.5,1.5 C 23.5983,2.60093 23.765,3.93426 23,5.5C 22.0053,4.93406 21.172,4.26739 20.5,3.5C 21.1667,2.83333 21.8333,2.16667 22.5,1.5 Z"/></g>
<g><path style="opacity:1" fill="#b3b7b8" d="M 22.5,1.5 C 23.3478,0.375047 24.3478,0.375047 25.5,1.5C 25.3894,3.64769 26.056,3.98103 27.5,2.5C 28.1818,3.24269 28.8485,3.90935 29.5,4.5C 29.6716,5.49162 29.3382,6.15829 28.5,6.5C 28.44,5.95691 28.1067,5.62358 27.5,5.5C 26.7492,6.37598 26.2492,7.37598 26,8.5C 25.6924,7.69194 25.1924,7.02527 24.5,6.5C 23.5,7.83333 22.5,7.83333 21.5,6.5C 20.8182,7.24269 20.1515,7.90935 19.5,8.5C 18.7703,6.95496 17.437,6.12162 15.5,6C 17.365,5.03573 19.0317,3.86907 20.5,2.5C 20.5,2.83333 20.5,3.16667 20.5,3.5C 21.172,4.26739 22.0053,4.93406 23,5.5C 23.765,3.93426 23.5983,2.60093 22.5,1.5 Z"/></g>
<g><path style="opacity:1" fill="#747676" d="M 28.5,6.5 C 28.3859,9.65114 27.0526,10.6511 24.5,9.5C 22.5853,9.78448 20.9187,9.45115 19.5,8.5C 20.1515,7.90935 20.8182,7.24269 21.5,6.5C 22.5,7.83333 23.5,7.83333 24.5,6.5C 25.1924,7.02527 25.6924,7.69194 26,8.5C 26.2492,7.37598 26.7492,6.37598 27.5,5.5C 28.1067,5.62358 28.44,5.95691 28.5,6.5 Z"/></g>
<g><path style="opacity:1" fill="#b4b8bb" d="M 19.5,8.5 C 20.9187,9.45115 22.5853,9.78448 24.5,9.5C 23.8333,10.1667 23.1667,10.8333 22.5,11.5C 20.1667,11.5 17.8333,11.5 15.5,11.5C 14.0813,10.5489 12.4147,10.2155 10.5,10.5C 10.5321,7.92423 9.86542,5.5909 8.5,3.5C 10.3,2.39477 11.4666,3.06143 12,5.5C 12.7175,4.54943 13.5509,4.38277 14.5,5C 12.9632,6.10963 12.2965,7.60963 12.5,9.5C 14.9496,9.70197 17.283,9.36863 19.5,8.5 Z"/></g>
<g><path style="opacity:1" fill="#31374f" d="M 15.5,11.5 C 17.8333,11.5 20.1667,11.5 22.5,11.5C 31.4603,16.3725 32.7936,22.8725 26.5,31C 19.1008,35.3755 13.2675,33.8755 9,26.5C 6.84412,19.4889 9.01079,14.4889 15.5,11.5 Z"/></g>
<g><path style="opacity:1" fill="#dacbc5" d="M 12.5,15.5 C 15.2869,14.5233 18.2869,14.19 21.5,14.5C 21.5,18.5 21.5,22.5 21.5,26.5C 24.9496,27.2436 26.6162,25.9103 26.5,22.5C 27.8009,23.8845 27.8009,25.3845 26.5,27C 23.386,28.0115 20.2193,28.8449 17,29.5C 15.2933,29.4915 13.7933,29.1582 12.5,28.5C 14.1667,28.5 15.8333,28.5 17.5,28.5C 17.5,24.1667 17.5,19.8333 17.5,15.5C 15.8333,15.5 14.1667,15.5 12.5,15.5 Z"/></g>
<g><path style="opacity:1" fill="#79bac6" d="M 12.5,15.5 C 14.1667,15.5 15.8333,15.5 17.5,15.5C 17.5,19.8333 17.5,24.1667 17.5,28.5C 15.8333,28.5 14.1667,28.5 12.5,28.5C 11.1667,24.1667 11.1667,19.8333 12.5,15.5 Z"/></g>
<g><path style="opacity:1" fill="#27daec" d="M 13.5,16.5 C 14.5,16.5 15.5,16.5 16.5,16.5C 16.5,20.1667 16.5,23.8333 16.5,27.5C 15.5,27.5 14.5,27.5 13.5,27.5C 13.5,23.8333 13.5,20.1667 13.5,16.5 Z"/></g>
<g><path style="opacity:1" fill="#e8875a" d="M 18.5,15.5 C 19.8001,17.223 20.4668,19.3897 20.5,22C 20.1667,24.1667 19.8333,26.3333 19.5,28.5C 18.5078,24.2172 18.1744,19.8839 18.5,15.5 Z"/></g>
<g><path style="opacity:1" fill="#a4b8bd" d="M 26.5,22.5 C 25.1529,23.1712 23.9862,23.1712 23,22.5C 22.2438,20.1913 22.7438,18.1913 24.5,16.5C 26.0863,18.1727 26.7529,20.1727 26.5,22.5 Z"/></g>
<g><path style="opacity:1" fill="#cdd2d3" d="M 13.5,34.5 C 17.7369,34.7739 22.0702,35.1073 26.5,35.5C 24.3952,36.6358 22.2285,37.6358 20,38.5C 17.2985,37.7475 15.1319,36.4141 13.5,34.5 Z"/></g>
</svg>
